<?xml version="1.0" standalone="no"?>
<!DOCTYPE svg PUBLIC "-//W3C//DTD SVG 20010904//EN"
 "http://www.w3.org/TR/2001/REC-SVG-20010904/DTD/svg10.dtd">
<svg version="1.0" xmlns="http://www.w3.org/2000/svg"
 width="417.000000pt" height="417.000000pt" viewBox="0 0 417.000000 417.000000"
 preserveAspectRatio="xMidYMid meet">
<metadata>
Created by potrace 1.11, written by Peter Selinger 2001-2013
</metadata>
<g transform="translate(0.000000,417.000000) scale(0.100000,-0.100000)"
fill="#000000" stroke="none">
<path d="M2 3153 l3 -238 123 -1 c67 -1 126 -2 131 -3 5 0 8 -345 7 -823 l-1
-823 -90 -2 c-50 -1 -109 -2 -132 -2 l-43 -1 0 -234 0 -233 555 0 555 0 1 21
c3 96 0 438 -5 443 -3 3 -62 6 -131 5 -74 0 -128 4 -131 10 -5 8 -9 436 -5
613 l1 40 518 0 c284 0 519 -3 522 -6 3 -4 5 -153 5 -331 l0 -323 -120 -2
c-66 0 -127 -1 -135 -2 -13 -1 -15 -33 -14 -233 l2 -233 556 -1 556 -1 -2 235
-3 235 -132 -2 -133 -2 -1 28 c0 15 -1 211 -2 435 l-2 408 415 -415 415 -415
0 -253 0 -252 441 -1 441 -1 0 253 c0 251 0 254 -21 255 -12 0 -62 1 -113 0
l-91 -1 -242 244 c-133 134 -320 323 -415 421 l-174 177 32 26 c18 15 131 112
252 216 121 104 244 210 274 235 30 25 59 51 65 56 6 6 56 48 111 95 55 47
104 90 108 97 6 9 39 13 111 13 l103 0 0 255 0 255 -443 0 -444 0 0 -247 c0
-137 -4 -253 -8 -258 -4 -6 -97 -89 -207 -185 -110 -96 -213 -187 -230 -201
-240 -211 -366 -319 -372 -319 -6 0 -9 616 -4 722 1 15 15 17 114 16 61 0 122
1 135 1 l22 1 0 235 0 235 -555 0 c-522 0 -555 -1 -556 -17 -4 -92 -1 -445 5
-450 3 -4 64 -7 134 -7 l127 -1 0 -265 0 -265 -523 -3 c-414 -2 -522 0 -523
10 -1 17 -1 488 0 509 1 14 19 15 136 14 l135 -1 0 25 c1 14 1 121 2 236 l0
210 -556 3 -556 2 2 -237z"/>
</g>
</svg>
